<svg width="1024" height="1024" xmlns="http://www.w3.org/2000/svg" class="icon">

	<g>
		<title>background</title>
		<rect fill="none" id="canvas_background" height="402" width="582" y="-1" x="-1"/>
	</g>
	<g>
		<title>Layer 1</title>
		<path stroke="null" id="svg_1" fill="#ffffff" d="m725.271576,519.368855l-49.730024,-49.730024l60.936156,-60.936156c9.000909,-9.000909 9.000909,-23.762401 0,-32.76331s-23.762401,-9.000909 -32.76331,0l-60.936156,60.936156l-44.554501,-44.554501l60.936156,-60.936156c9.000909,-9.000909 9.000909,-23.762401 0,-32.76331s-23.762401,-9.000909 -32.76331,0l-60.936156,60.936156l-49.730024,-49.730024c-8.955905,-8.955905 -23.582382,-8.955905 -32.538287,0s-8.955905,23.582382 0,32.538287l209.541169,209.541169c8.955905,8.955905 23.582382,8.955905 32.538287,0s8.955905,-23.582382 0,-32.538287zm-51.17017,36.138651l-194.824682,-194.824682c-0.855086,-0.855086 -2.250227,-0.855086 -3.105314,0l-26.912719,26.912719l-51.08016,51.08016l-0.090009,0.090009l-0.270027,0.270027c-17.731791,34.428478 -17.731791,75.337611 -19.441964,107.740885l109.991112,109.991112c32.178251,-2.430246 78.847966,-1.125114 107.335844,-19.847005l0.360036,-0.360036l0.045005,0.045005l77.992879,-77.992879c0.855086,-0.855086 0.855086,-2.250227 0,-3.105314zm-207.740987,100.76518l-87.848875,-87.848875c-6.120618,-6.120618 -16.066623,-6.120618 -22.187241,0c-6.120618,6.120618 -6.120618,16.066623 0,22.187241l87.89388,87.89388c6.120618,6.120618 16.066623,6.075614 22.187241,0c6.075614,-6.120618 6.075614,-16.111628 -0.045005,-22.232246zm-127.452876,-25.652592c-8.280837,8.280837 -8.280837,21.87221 0,30.153046l6.9307,6.9307l-44.509497,44.509497l21.87221,21.87221l44.509497,-44.509497l6.9307,6.9307c8.280837,8.280837 21.87221,8.280837 30.153046,0l17.776796,-17.776796l-65.886656,-65.886656l-17.776796,17.776796z"/>
	</g>
</svg>