<?xml version="1.0" standalone="no"?>
<!DOCTYPE svg PUBLIC "-//W3C//DTD SVG 1.1//EN" "http://www.w3.org/Graphics/SVG/1.1/DTD/svg11.dtd">
<svg t="1671696430170" class="icon" viewBox="0 0 1024 1024" version="1.1" xmlns="http://www.w3.org/2000/svg" p-id="2002" xmlns:xlink="http://www.w3.org/1999/xlink" width="456" height="456">
	<path d="M961.9 522.7L851.4 412.2l135.4-135.4c20-20 20-52.8 0-72.8s-52.8-20-72.8 0L778.6 339.4l-99-99L815 105c20-20 20-52.8 0-72.8s-52.8-20-72.8 0L606.8 167.6 496.3 57.1c-19.9-19.9-52.4-19.9-72.3 0s-19.9 52.4 0 72.3L889.6 595c19.9 19.9 52.4 19.9 72.3 0s19.9-52.4 0-72.3zM848.2 603L415.3 170.1c-1.9-1.9-5-1.9-6.9 0l-59.8 59.8-113.5 113.5-0.2 0.2-0.6 0.6c-39.4 76.5-39.4 167.4-43.2 239.4L435.5 828c71.5-5.4 175.2-2.5 238.5-44.1l0.8-0.8 0.1 0.1 173.3-173.3c1.9-1.9 1.9-5 0-6.9zM386.6 826.9L191.4 631.7c-13.6-13.6-35.7-13.6-49.3 0-13.6 13.6-13.6 35.7 0 49.3l195.3 195.3c13.6 13.6 35.7 13.5 49.3 0 13.5-13.6 13.5-35.8-0.1-49.4zM103.4 769.9c-18.4 18.4-18.4 48.6 0 67l15.4 15.4-98.9 98.9 48.6 48.6 98.9-98.9 15.4 15.4c18.4 18.4 48.6 18.4 67 0l39.5-39.5-146.4-146.4-39.5 39.5z" fill="#ffffff" p-id="2003"></path>
</svg>